<svg width="21" height="19" viewBox="0 0 21 19" fill="none" xmlns="http://www.w3.org/2000/svg">
<path d="M16.4622 4.43959L16.4635 4.44092C16.6029 4.58021 16.7134 4.7456 16.7889 4.92764C16.8643 5.10968 16.9031 5.30479 16.9031 5.50183C16.9031 5.69886 16.8643 5.89397 16.7889 6.07601C16.7134 6.25805 16.6029 6.42344 16.4635 6.56273L16.4629 6.5634L15.4029 7.6234L10.4513 12.575L5.49972 7.6234L4.43972 6.5634C4.15817 6.28185 4 5.89999 4 5.50183C4 5.10366 4.15817 4.7218 4.43972 4.44025C4.72126 4.15871 5.10312 4.00054 5.50129 4.00054C5.89946 4.00053 6.28132 4.15871 6.56286 4.44025L7.62286 5.50025C9.18496 7.06235 11.7176 7.06235 13.2797 5.50025L14.3397 4.44025L14.3404 4.43959C14.4797 4.30023 14.6451 4.18967 14.8271 4.11425C15.0091 4.03882 15.2042 4 15.4013 4C15.5983 4 15.7934 4.03882 15.9755 4.11425C16.1575 4.18967 16.3229 4.30023 16.4622 4.43959Z" stroke="#FE0000" stroke-width="8" stroke-linecap="round" stroke-linejoin="round"/>
</svg>
